<svg xmlns="http://www.w3.org/2000/svg" xmlns:xlink="http://www.w3.org/1999/xlink" version="1.1" id="Capa_1"
  viewBox="-275 367 60 60" xml:space="preserve" width="150" height="150">
  <style type="text/css">
    .st0 {
      fill: #ffffff;
      fill-opacity: 0;
    }

    .st1 {
      fill: #80d6fa;
    }

    .st2 {
      fill: #ecf4f7;
    }

    .st3 {
      fill: #aab1ba;
    }

    .st4 {
      fill: #51565f;
    }
  </style>
  <title>plane</title>
  <desc>Created with Sketch.</desc>
  <g id="Travel">
    <g id="plane">
      <g id="fill" transform="translate(1.000000, 7.000000)">
        <path id="Fill-5" class="st1"
          d="M-223,385c3.3,0,6,2.7,6,6s-2.7,6-6,6h-17.8l-0.1,0l1.9-4h-16v4h-4c-9,0-16-7-16-16v-7     c0-0.5,0.5-1,1-1h2c0.5,0,1.2,0.3,1.4,1l2,5h13.6h11.7h10.3l1,4c0.4,1.1,1.3,2,2.5,2H-223z" />
        <path id="Combined-Shape" class="st2"
          d="M-239,393l-1.9,4l-7.1,15c-0.3,0.6-0.9,1-1.5,1h-4.5c-0.6,0-1-0.5-1-1v-15v-4H-239z      M-248,368l4.7,10.9H-255V368c0-0.6,0.4-1.1,1-1.1h4.5C-248.9,367-248.3,367.4-248,368z" />
        <path id="Combined-Shape_1_" class="st3"
          d="M-250,383c0.6,0,1,0.5,1,1s-0.4,1-1,1s-1-0.5-1-1S-250.6,383-250,383z M-256,383     c0.6,0,1,0.5,1,1s-0.4,1-1,1c-0.5,0-1-0.5-1-1S-256.5,383-256,383z M-244,383c0.6,0,1,0.5,1,1s-0.4,1-1,1s-1-0.5-1-1     S-244.6,383-244,383z M-262,383c0.5,0,1,0.5,1,1s-0.5,1-1,1s-1-0.5-1-1S-262.5,383-262,383z M-238,383c0.6,0,1,0.5,1,1     s-0.4,1-1,1s-1-0.5-1-1S-238.6,383-238,383z" />
        <path id="Fill-18" class="st2" d="M-223,385h-6.5c-1.2,0-2.1-0.9-2.5-2l-1-4h4C-224,379-223,385-223,385" />
      </g>
      <path class="st4"
        d="M-248.5,420.5h-4.5c-0.8,0-1.5-0.7-1.5-1.5v-19c0-0.3,0.2-0.5,0.5-0.5h16c0.2,0,0.3,0.1,0.4,0.2    c0.1,0.1,0.1,0.2,0.1,0.3c0,0.1,0,0.1,0,0.2l-1.6,3.3h17.1c3,0,5.5-2.5,5.5-5.5c0-3-2.5-5.5-5.5-5.5c-0.2,0-0.5-0.2-0.5-0.4    c0-0.2-1-5.6-5.5-5.6h-3.4l0.8,3.4c0.1,0.3,0.7,1.6,2,1.6h2.5c0.3,0,0.5,0.2,0.5,0.5s-0.2,0.5-0.5,0.5h-2.5c-1.3,0-2.4-0.9-3-2.3    l-0.9-3.7h-35.2c-0.2,0-0.4-0.1-0.5-0.3l-2-5c-0.2-0.5-0.6-0.7-1-0.7h-2c-0.3,0-0.5,0.2-0.5,0.5v7c0,8.7,6.8,15.5,15.5,15.5    c0.3,0,0.5,0.2,0.5,0.5s-0.2,0.5-0.5,0.5c-9.3,0-16.5-7.2-16.5-16.5v-7c0-0.8,0.7-1.5,1.5-1.5h2c0.7,0,1.5,0.4,1.9,1.3l1.9,4.7    h35.2c0,0,0,0,0,0h4c4.6,0,6.1,4.6,6.4,6c3.4,0.2,6.1,3,6.1,6.5c0,3.6-2.9,6.5-6.5,6.5h-17.6l-7,14.7    C-246.9,419.9-247.7,420.5-248.5,420.5z M-253.5,419c0,0.3,0.2,0.5,0.5,0.5h4.5c0.3,0,0.8-0.3,1-0.7l8.7-18.3h-14.7V419z     M-260,420.5h-4c-0.3,0-0.5-0.2-0.5-0.5s0.2-0.5,0.5-0.5h4c0.3,0,0.5,0.2,0.5,0.5S-259.7,420.5-260,420.5z M-260,414.5h-10    c-0.3,0-0.5-0.2-0.5-0.5s0.2-0.5,0.5-0.5h10c0.3,0,0.5,0.2,0.5,0.5S-259.7,414.5-260,414.5z M-260,408.5h-6    c-0.3,0-0.5-0.2-0.5-0.5s0.2-0.5,0.5-0.5h6c0.3,0,0.5,0.2,0.5,0.5S-259.7,408.5-260,408.5z M-222,400.5h-12    c-0.3,0-0.5-0.2-0.5-0.5s0.2-0.5,0.5-0.5h12c0.3,0,0.5,0.2,0.5,0.5S-221.7,400.5-222,400.5z M-237,392.5c-0.8,0-1.5-0.7-1.5-1.5    s0.7-1.5,1.5-1.5s1.5,0.7,1.5,1.5S-236.2,392.5-237,392.5z M-237,390.5c-0.3,0-0.5,0.2-0.5,0.5s0.2,0.5,0.5,0.5s0.5-0.2,0.5-0.5    S-236.7,390.5-237,390.5z M-243,392.5c-0.8,0-1.5-0.7-1.5-1.5s0.7-1.5,1.5-1.5s1.5,0.7,1.5,1.5S-242.2,392.5-243,392.5z     M-243,390.5c-0.3,0-0.5,0.2-0.5,0.5s0.2,0.5,0.5,0.5s0.5-0.2,0.5-0.5S-242.7,390.5-243,390.5z M-249,392.5    c-0.8,0-1.5-0.7-1.5-1.5s0.7-1.5,1.5-1.5s1.5,0.7,1.5,1.5S-248.2,392.5-249,392.5z M-249,390.5c-0.3,0-0.5,0.2-0.5,0.5    s0.2,0.5,0.5,0.5s0.5-0.2,0.5-0.5S-248.7,390.5-249,390.5z M-255,392.5c-0.8,0-1.5-0.7-1.5-1.5s0.7-1.5,1.5-1.5s1.5,0.7,1.5,1.5    S-254.2,392.5-255,392.5z M-255,390.5c-0.3,0-0.5,0.2-0.5,0.5s0.2,0.5,0.5,0.5s0.5-0.2,0.5-0.5S-254.7,390.5-255,390.5z     M-261,392.5c-0.8,0-1.5-0.7-1.5-1.5s0.7-1.5,1.5-1.5s1.5,0.7,1.5,1.5S-260.2,392.5-261,392.5z M-261,390.5    c-0.3,0-0.5,0.2-0.5,0.5s0.2,0.5,0.5,0.5s0.5-0.2,0.5-0.5S-260.7,390.5-261,390.5z M-244,382.5c-0.2,0-0.4-0.1-0.5-0.3l-3-7    c-0.2-0.4-0.7-0.7-1-0.7h-4.5c-0.3,0-0.5,0.2-0.5,0.5v7c0,0.3-0.2,0.5-0.5,0.5s-0.5-0.2-0.5-0.5v-7c0-0.9,0.7-1.5,1.5-1.5h4.5    c0.8,0,1.6,0.6,1.9,1.3l3,7c0.1,0.3,0,0.5-0.3,0.7C-243.9,382.5-243.9,382.5-244,382.5z M-260,380.5h-4c-0.3,0-0.5-0.2-0.5-0.5    s0.2-0.5,0.5-0.5h4c0.3,0,0.5,0.2,0.5,0.5S-259.7,380.5-260,380.5z M-260,374.5h-2c-0.3,0-0.5-0.2-0.5-0.5s0.2-0.5,0.5-0.5h2    c0.3,0,0.5,0.2,0.5,0.5S-259.7,374.5-260,374.5z" />
    </g>
  </g>
</svg>